<svg width="1200" height="362" viewBox="0 0 1200 362" fill="none" xmlns="http://www.w3.org/2000/svg">
<path d="M342.579 137.237C367.491 180.386 324.914 251.607 247.48 296.314C170.046 341.02 87.0778 342.283 62.1658 299.134C37.2538 255.985 79.8313 184.764 157.265 140.058C234.699 95.3511 317.667 94.0883 342.579 137.237Z" fill="#AA93D9"/>
<path d="M58.6387 291.705C42.0841 248.166 84.1262 182.284 157.266 140.057C230.405 97.83 308.482 94.3615 337.91 130.467C354.464 174.006 312.422 239.888 239.283 282.115C166.143 324.342 88.0667 327.811 58.6387 291.705Z" fill="#C1A5E1"/>
<path d="M56.2843 283.609C47.2613 240.32 88.5321 179.741 157.27 140.055C226.007 100.37 299.106 94.9177 332.084 124.376C341.107 167.665 299.836 228.244 231.098 267.93C162.36 307.616 89.2622 313.068 56.2843 283.609Z" fill="#CBB6EE"/>
<path d="M319.529 97.3141C344.441 140.463 301.864 211.684 224.43 256.39C146.996 301.097 64.028 302.36 39.116 259.211C14.204 216.062 56.7815 144.841 134.215 100.135C211.649 55.428 294.617 54.1652 319.529 97.3141Z" fill="#FCBA4B"/>
<path d="M35.4914 251.523C19.2019 207.982 61.2221 142.278 134.216 100.135C207.211 57.9912 285.123 54.4529 314.685 90.3302C330.974 133.87 288.954 199.575 215.96 241.718C142.965 283.861 65.0536 287.4 35.4914 251.523Z" fill="#FEDB78"/>
<path d="M299.381 62.4159C324.293 105.565 281.716 176.786 204.282 221.492C126.848 266.199 43.8801 267.461 18.9681 224.313C-5.94396 181.164 36.6335 109.943 114.068 65.2363C191.502 20.5298 274.469 19.267 299.381 62.4159Z" fill="#AA93D9"/>
<path d="M15.4409 216.883C-1.11363 173.345 40.9284 107.463 114.068 65.2358C187.208 23.0087 265.284 19.5402 294.712 55.646C311.267 99.1844 269.225 165.066 196.085 207.294C122.946 249.521 44.8689 252.989 15.4409 216.883Z" fill="#C1A5E1"/>
<path d="M13.0866 208.788C4.06357 165.499 45.3343 104.92 114.072 65.2341C182.81 25.5484 255.908 20.0964 288.886 49.5551C297.909 92.8441 256.638 153.423 187.9 193.109C119.163 232.794 46.0645 238.246 13.0866 208.788Z" fill="#CBB6EE"/>
<path d="M218.008 70.8005C230.11 91.761 206.032 128.318 164.228 152.454C122.425 176.589 78.7263 179.162 66.6248 158.202C54.5233 137.242 78.6014 100.684 120.405 76.549C162.208 52.4138 205.907 49.8401 218.008 70.8005Z" fill="#E2D3FC" fill-opacity="0.5"/>
<path d="M156.343 75.7846C160.705 83.3402 152.025 96.5178 136.957 105.218C121.888 113.918 106.136 114.845 101.774 107.29C97.4119 99.7343 106.091 86.5567 121.16 77.8568C136.229 69.1569 151.98 68.2291 156.343 75.7846Z" fill="#EFE7FF" fill-opacity="0.5"/>
<path d="M176.448 151.572C179.273 156.464 177.596 162.72 172.704 165.544C167.812 168.369 161.557 166.692 158.732 161.8C155.908 156.908 157.584 150.653 162.476 147.828C167.368 145.004 173.624 146.68 176.448 151.572Z" fill="#FE604C"/>
<circle cx="131.153" cy="146.858" r="12.2134" transform="rotate(-30 131.153 146.858)" fill="#4F1C09"/>
<circle cx="177.294" cy="120.213" r="12.2134" transform="rotate(-30 177.294 120.213)" fill="#4F1C09"/>
<path fill-rule="evenodd" clip-rule="evenodd" d="M219.637 124.792C221.671 125.378 222.844 127.502 222.258 129.536C221.202 133.199 220.682 136.97 220.114 141.085C220.086 141.293 220.057 141.502 220.028 141.712C219.438 145.976 218.77 150.585 217.289 155.177C214.638 163.399 209.219 170.071 203.012 175.528C196.807 180.983 189.621 185.39 183.159 189.024C169.088 196.938 149.849 204.773 132.111 200.48C130.458 200.08 128.406 199.532 126.468 198.621C124.518 197.705 122.443 196.315 120.982 194.091C119.819 192.322 120.31 189.946 122.079 188.783C123.848 187.62 126.225 188.112 127.387 189.881C127.808 190.52 128.538 191.125 129.727 191.683C130.928 192.247 132.349 192.651 133.914 193.03C148.609 196.586 165.567 190.123 179.401 182.343C185.727 178.785 192.356 174.689 197.951 169.77C203.545 164.853 207.912 159.28 209.993 152.825C211.243 148.95 211.84 144.961 212.435 140.662C212.47 140.407 212.505 140.15 212.541 139.892C213.089 135.906 213.678 131.625 214.892 127.413C215.479 125.379 217.603 124.205 219.637 124.792Z" fill="#4F1C09"/>
<path d="M450.762 110.53L471.242 176.563L515.264 110.53H551.439L527.131 248.338H492.488L506.269 170.63L476.793 216.948H451.719L438.704 170.63L424.923 248.338H390.471L414.779 110.53H450.762Z" fill="black"/>
<path d="M644.736 218.862C644.736 222.18 646.395 223.839 649.713 223.839C653.158 223.839 656.029 223.201 658.326 221.925L657.369 243.553C651.244 248.53 644.354 251.018 636.698 251.018C622.662 251.018 614.878 245.914 613.347 235.706C606.967 245.914 597.588 251.018 585.211 251.018C564.284 251.018 553.821 242.022 553.821 224.03C553.821 220.968 554.14 217.586 554.778 213.886L558.797 191.492C560.839 180.008 565.497 170.885 572.77 164.122C580.171 157.232 589.741 153.786 601.48 153.786C613.347 153.786 621.385 156.53 625.596 162.017L626.553 156.275H655.646L644.928 216.566C644.8 217.331 644.736 218.097 644.736 218.862ZM588.082 209.675C587.827 210.824 587.699 212.419 587.699 214.46C587.699 216.502 588.656 218.544 590.57 220.585C592.484 222.499 595.674 223.456 600.14 223.456C604.734 223.456 608.689 221.67 612.007 218.097L617.749 185.942C616.345 182.752 613.028 181.157 607.796 181.157C597.971 181.157 592.229 185.878 590.57 195.32L588.082 209.675Z" fill="black"/>
<path d="M708.772 251.018C682.231 251.018 668.961 241.831 668.961 223.456C668.961 220.904 669.216 218.161 669.726 215.226L673.746 191.492C675.787 179.243 681.338 169.864 690.397 163.356C699.585 156.849 711.196 153.531 725.232 153.404C752.411 153.404 766.001 162.846 766.001 181.731C766.001 185.814 765.49 189.514 764.469 192.832C763.576 196.022 762.619 198.191 761.598 199.34L760.067 201.254H727.529C730.719 198.446 732.314 195.129 732.314 191.301C732.314 184.41 728.869 180.965 721.978 180.965C717.895 180.965 714.386 182.177 711.451 184.602C708.517 187.026 706.603 190.727 705.709 195.703L703.221 209.675C702.966 210.951 702.838 212.163 702.838 213.312C702.838 220.075 707.049 223.456 715.471 223.456C718.278 223.456 720.766 222.563 722.935 220.777C725.232 218.99 726.572 217.012 726.955 214.843L758.727 215.226C754.517 239.087 737.865 251.018 708.772 251.018Z" fill="black"/>
<path d="M865.109 218.862C865.109 222.18 866.767 223.839 870.085 223.839C873.53 223.839 876.401 223.201 878.698 221.925L877.741 243.553C871.616 248.53 864.726 251.018 857.07 251.018C843.034 251.018 835.25 245.914 833.719 235.706C827.339 245.914 817.96 251.018 805.583 251.018C784.657 251.018 774.193 242.022 774.193 224.03C774.193 220.968 774.512 217.586 775.15 213.886L779.17 191.492C781.211 180.008 785.869 170.885 793.142 164.122C800.543 157.232 810.113 153.786 821.852 153.786C833.719 153.786 841.758 156.53 845.969 162.017L846.926 156.275H876.019L865.3 216.566C865.172 217.331 865.109 218.097 865.109 218.862ZM808.454 209.675C808.199 210.824 808.071 212.419 808.071 214.46C808.071 216.502 809.028 218.544 810.942 220.585C812.856 222.499 816.046 223.456 820.512 223.456C825.106 223.456 829.062 221.67 832.379 218.097L838.121 185.942C836.718 182.752 833.4 181.157 828.168 181.157C818.343 181.157 812.601 185.878 810.942 195.32L808.454 209.675Z" fill="black"/>
<path d="M983.31 175.797C983.31 180.136 982.545 184.347 981.014 188.43C979.61 192.513 978.206 195.512 976.803 197.426L974.697 200.105H945.796C948.986 197.17 950.581 193.534 950.581 189.195C950.581 186.899 949.815 185.048 948.284 183.645C946.881 182.114 944.903 181.348 942.351 181.348C938.012 181.348 934.248 183.517 931.058 187.856L920.34 248.338H887.802L904.071 156.275H934.312L932.015 169.098C939.288 158.763 948.093 153.595 958.428 153.595C966.722 153.595 972.911 155.573 976.994 159.528C981.205 163.484 983.31 168.907 983.31 175.797Z" fill="black"/>
<path d="M1046.03 153.595C1059.81 153.595 1070.21 156.594 1077.23 162.591C1082.71 167.312 1085.46 173.883 1085.46 182.305C1085.46 185.112 1085.14 188.175 1084.5 191.492L1080.48 213.886C1078.05 227.412 1072.38 236.982 1063.44 242.596C1054.64 248.211 1042.84 251.018 1028.04 251.018C1013.23 251.018 1002.39 248.211 995.497 242.596C990.393 238.385 987.841 232.069 987.841 223.648C987.841 220.713 988.16 217.459 988.798 213.886L992.818 191.492C997.284 166.227 1015.02 153.595 1046.03 153.595ZM1051.19 195.32C1051.45 194.044 1051.58 192.449 1051.58 190.535C1051.58 188.494 1050.75 186.261 1049.09 183.836C1047.43 181.412 1044.5 180.2 1040.29 180.2C1036.2 180.2 1032.76 181.603 1029.95 184.41C1027.14 187.09 1025.36 190.727 1024.59 195.32L1022.1 209.675C1021.85 210.951 1021.72 212.61 1021.72 214.652C1021.72 216.566 1022.55 218.671 1024.21 220.968C1025.87 223.265 1028.74 224.413 1032.82 224.413C1037.03 224.413 1040.54 223.01 1043.35 220.202C1046.15 217.267 1047.94 213.758 1048.71 209.675L1051.19 195.32Z" fill="black"/>
<path d="M1158.47 189.578C1158.47 184.091 1155.79 181.348 1150.43 181.348C1145.2 181.348 1140.86 183.326 1137.41 187.281L1126.69 248.338H1094.16L1110.42 156.275H1140.67L1138.56 167.567C1146.09 158.252 1155.59 153.595 1167.08 153.595C1178.56 153.595 1186.03 156.402 1189.47 162.017C1191.64 165.589 1192.73 169.673 1192.73 174.266C1192.73 178.86 1192.41 183.134 1191.77 187.09L1186.6 216.566C1186.47 217.331 1186.41 218.033 1186.41 218.671C1186.41 222.116 1188.32 223.839 1192.15 223.839C1195.09 223.839 1197.7 223.201 1200 221.925L1199.04 243.553C1193.05 248.53 1186.22 251.018 1178.56 251.018C1161.21 251.018 1152.53 243.745 1152.53 229.198C1152.53 226.646 1152.79 223.903 1153.3 220.968L1157.89 195.512C1158.27 193.215 1158.47 191.237 1158.47 189.578Z" fill="black"/>
</svg>
